# Blender v2.79 (sub 0) OBJ File: ''
# www.blender.org
mtllib casilla.mtl
o Casilla_Cube
v 1.000000 -1.000000 -1.000000
v 1.000000 -1.000000 1.000000
v -1.000000 -1.000000 1.000000
v -1.000000 -1.000000 -1.000000
v 0.771021 1.000000 -0.771020
v 0.771020 1.000000 0.771021
v -0.771021 1.000000 0.771021
v -0.771021 1.000000 -0.771021
v 1.000000 1.000000 -0.999999
v 0.999999 1.000000 1.000001
v -1.000000 1.000000 -1.000000
v -1.000000 1.000000 1.000000
vt 0.666667 0.333333
vt 1.000000 0.333333
vt 1.000000 0.666667
vt 0.666667 0.666667
vt 0.961837 0.038163
vt 0.961837 0.295170
vt 0.704830 0.295170
vt 0.704830 0.038163
vt 0.333333 0.333333
vt 0.000000 0.333333
vt 0.000000 0.000000
vt 0.333333 0.000000
vt 0.333333 0.333333
vt 0.333333 0.000000
vt 0.666667 0.000000
vt 0.666667 0.333333
vt 0.333333 1.000000
vt 0.000000 1.000000
vt 0.000000 0.666667
vt 0.333333 0.666667
vt 0.666667 0.000000
vt 1.000000 0.000000
vt 1.000000 0.333333
vt 0.666667 0.333333
vn 0.0000 -1.0000 0.0000
vn 0.0000 1.0000 0.0000
vn 1.0000 0.0000 0.0000
vn -0.0000 -0.0000 1.0000
vn -1.0000 -0.0000 -0.0000
vn 0.0000 0.0000 -1.0000
usemtl Material
s off
f 1/1/1 2/2/1 3/3/1 4/4/1
f 5/5/2 8/6/2 7/7/2 6/8/2
f 1/9/3 9/10/3 10/11/3 2/12/3
f 2/13/4 10/14/4 12/15/4 3/16/4
f 3/17/5 12/18/5 11/19/5 4/20/5
f 9/10/6 1/9/6 4/20/6 11/19/6
f 5/5/2 6/8/2 10/21/2 9/22/2
f 8/6/2 5/5/2 9/22/2 11/23/2
f 6/8/2 7/7/2 12/24/2 10/21/2
f 7/7/2 8/6/2 11/23/2 12/24/2
