# Blender v2.79 (sub 0) OBJ File: 'prototipo.blend'
# www.blender.org
mtllib curva.mtl
o curva_Cube.007
v 0.335963 -0.152741 0.315990
v 1.002629 -0.152741 0.315990
v 1.002629 0.152741 0.315990
v 0.335963 0.152741 0.315990
v -0.330704 -0.152741 -1.017344
v -0.330704 -0.152741 -0.350677
v -0.330704 0.152741 -0.350677
v -0.330704 0.152741 -1.017344
v 1.002629 0.152741 -1.017344
v 1.002629 0.152741 -0.350677
v 0.335963 0.152741 -1.017344
v 0.335963 0.152741 -0.350677
v 0.335963 -0.152741 -1.017344
v 0.335963 -0.152741 -0.350677
v 1.002629 -0.152741 -1.017344
v 1.002629 -0.152741 -0.350677
v 0.335963 -0.152741 1.017344
v 1.002629 -0.152741 1.017344
v 1.002629 0.152741 1.017344
v 0.335963 0.152741 1.017344
v -1.002629 -0.152741 -1.017344
v -1.002629 -0.152741 -0.350677
v -1.002629 0.152741 -0.350677
v -1.002629 0.152741 -1.017344
vn 0.0000 1.0000 0.0000
vn 0.0000 -1.0000 0.0000
vn -1.0000 0.0000 0.0000
vn 0.0000 0.0000 1.0000
vn 1.0000 0.0000 0.0000
vn 0.0000 0.0000 -1.0000
usemtl None
s off
f 10//1 12//1 4//1 3//1
f 14//2 16//2 2//2 1//2
f 3//1 4//1 20//1 19//1
f 4//3 1//3 17//3 20//3
f 13//2 15//2 16//2 14//2
f 5//2 13//2 14//2 6//2
f 9//1 11//1 12//1 10//1
f 11//1 8//1 7//1 12//1
f 18//4 19//4 20//4 17//4
f 1//2 2//2 18//2 17//2
f 2//5 3//5 19//5 18//5
f 4//3 12//3 14//3 1//3
f 14//4 12//4 7//4 6//4
f 13//6 5//6 8//6 11//6
f 3//5 2//5 16//5 10//5
f 22//3 23//3 24//3 21//3
f 5//2 6//2 22//2 21//2
f 8//6 5//6 21//6 24//6
f 7//1 8//1 24//1 23//1
f 6//4 7//4 23//4 22//4
f 15//6 13//6 11//6 9//6
f 10//5 16//5 15//5 9//5
