# Blender v2.79 (sub 0) OBJ File: 'prototipo.blend'
# www.blender.org
mtllib intersección.mtl
o Intersección_Cube.005
v 0.333333 -0.152741 -1.000000
v -0.333333 -0.152741 -1.000000
v -0.333333 0.152741 -1.000000
v 0.333333 0.152741 -1.000000
v -0.333333 -0.152741 1.000000
v 0.333333 -0.152741 1.000000
v 0.333333 0.152741 1.000000
v -0.333333 0.152741 1.000000
v -1.000000 -0.152741 -0.333333
v -1.000000 -0.152741 0.333333
v -1.000000 0.152741 0.333333
v -1.000000 0.152741 -0.333333
v 1.000000 -0.152741 0.333333
v 1.000000 -0.152741 -0.333333
v 1.000000 0.152741 -0.333333
v 1.000000 0.152741 0.333333
v 0.333333 0.152741 -0.333333
v 0.333333 0.152741 0.333333
v -0.333333 0.152741 -0.333333
v -0.333333 0.152741 0.333333
v -0.333333 -0.152741 -0.333333
v -0.333333 -0.152741 0.333333
v 0.333333 -0.152741 -0.333333
v 0.333333 -0.152741 0.333333
v 0.333333 -0.152741 -1.701354
v -0.333333 -0.152741 -1.701354
v -0.333333 0.152741 -1.701354
v 0.333333 0.152741 -1.701354
v -0.333333 -0.152741 1.701354
v 0.333333 -0.152741 1.701354
v 0.333333 0.152741 1.701354
v -0.333333 0.152741 1.701354
v -1.671925 -0.152741 -0.333333
v -1.671925 -0.152741 0.333333
v -1.671925 0.152741 0.333333
v -1.671925 0.152741 -0.333333
v 1.671925 -0.152741 0.333333
v 1.671925 -0.152741 -0.333333
v 1.671925 0.152741 -0.333333
v 1.671925 0.152741 0.333333
vn 0.0000 1.0000 0.0000
vn 0.0000 -1.0000 0.0000
vn -1.0000 0.0000 0.0000
vn 0.0000 0.0000 -1.0000
vn 0.0000 0.0000 1.0000
vn 1.0000 0.0000 0.0000
usemtl None
s off
f 18//1 20//1 8//1 7//1
f 22//2 24//2 6//2 5//2
f 7//1 8//1 32//1 31//1
f 8//3 5//3 29//3 32//3
f 2//2 1//2 23//2 21//2
f 21//2 23//2 24//2 22//2
f 9//2 21//2 22//2 10//2
f 4//1 3//1 19//1 17//1
f 17//1 19//1 20//1 18//1
f 15//1 17//1 18//1 16//1
f 19//1 12//1 11//1 20//1
f 23//2 14//2 13//2 24//2
f 13//2 14//2 38//2 37//2
f 14//4 15//4 39//4 38//4
f 30//5 31//5 32//5 29//5
f 26//4 27//4 28//4 25//4
f 5//2 6//2 30//2 29//2
f 2//3 3//3 27//3 26//3
f 3//1 4//1 28//1 27//1
f 6//6 7//6 31//6 30//6
f 1//2 2//2 26//2 25//2
f 4//6 1//6 25//6 28//6
f 8//3 20//3 22//3 5//3
f 22//5 20//5 11//5 10//5
f 21//4 9//4 12//4 19//4
f 3//3 2//3 21//3 19//3
f 1//6 4//6 17//6 23//6
f 17//4 15//4 14//4 23//4
f 18//5 24//5 13//5 16//5
f 7//6 6//6 24//6 18//6
f 38//6 39//6 40//6 37//6
f 34//3 35//3 36//3 33//3
f 9//2 10//2 34//2 33//2
f 12//4 9//4 33//4 36//4
f 16//5 13//5 37//5 40//5
f 15//1 16//1 40//1 39//1
f 11//1 12//1 36//1 35//1
f 10//5 11//5 35//5 34//5
