# Blender v2.79 (sub 0) OBJ File: 'prototipo.blend'
# www.blender.org
mtllib recta.mtl
o recta_Cube.006
v 1.000000 -0.152741 0.333333
v 1.000000 -0.152741 -0.333333
v 1.000000 0.152741 -0.333333
v 1.000000 0.152741 0.333333
v -1.000000 -0.152741 -0.333333
v -1.000000 -0.152741 0.333333
v -1.000000 0.152741 0.333333
v -1.000000 0.152741 -0.333333
v 0.333333 0.152741 0.333333
v -0.333333 0.152741 0.333333
v 0.333333 0.152741 -0.333333
v -0.333333 0.152741 -0.333333
v 0.333333 -0.152741 -0.333333
v -0.333333 -0.152741 -0.333333
v 0.333333 -0.152741 0.333333
v -0.333333 -0.152741 0.333333
v 1.701354 -0.152741 0.333333
v 1.701354 -0.152741 -0.333333
v 1.701354 0.152741 -0.333333
v 1.701354 0.152741 0.333333
v -1.701354 -0.152741 -0.333333
v -1.701354 -0.152741 0.333333
v -1.701354 0.152741 0.333333
v -1.701354 0.152741 -0.333333
vn 0.0000 1.0000 0.0000
vn 0.0000 -1.0000 0.0000
vn 0.0000 0.0000 -1.0000
vn -1.0000 0.0000 0.0000
vn 1.0000 0.0000 0.0000
vn -0.0000 0.0000 1.0000
usemtl None
s off
f 10//1 12//1 8//1 7//1
f 14//2 16//2 6//2 5//2
f 7//1 8//1 24//1 23//1
f 8//3 5//3 21//3 24//3
f 2//2 1//2 15//2 13//2
f 13//2 15//2 16//2 14//2
f 4//1 3//1 11//1 9//1
f 9//1 11//1 12//1 10//1
f 22//4 23//4 24//4 21//4
f 18//5 19//5 20//5 17//5
f 5//2 6//2 22//2 21//2
f 2//3 3//3 19//3 18//3
f 3//1 4//1 20//1 19//1
f 6//6 7//6 23//6 22//6
f 1//2 2//2 18//2 17//2
f 4//6 1//6 17//6 20//6
f 8//3 12//3 14//3 5//3
f 3//3 2//3 13//3 11//3
f 1//6 4//6 9//6 15//6
f 7//6 6//6 16//6 10//6
f 12//3 11//3 13//3 14//3
f 10//6 16//6 15//6 9//6
